<svg xmlns="http://www.w3.org/2000/svg" viewBox="0 0 512 512">
  <defs>
    <radialGradient id="glow" cx="50%" cy="50%" r="50%">
      <stop offset="0%" stop-color="#FFFFFF" stop-opacity="0.14" />
      <stop offset="100%" stop-color="#FFFFFF" stop-opacity="0" />
    </radialGradient>
    <linearGradient id="cellTop" x1="0%" y1="0%" x2="0%" y2="100%">
      <stop offset="0%" stop-color="#231D16" />
      <stop offset="100%" stop-color="#1D1812" />
    </linearGradient>
    <linearGradient id="cellBottom" x1="0%" y1="0%" x2="0%" y2="100%">
      <stop offset="0%" stop-color="#18130F" />
      <stop offset="100%" stop-color="#120F0B" />
    </linearGradient>
  </defs>
  <rect width="512" height="512" rx="110" fill="#0A0806" />
  <circle cx="256" cy="256" r="176" fill="url(#glow)" />
  <g stroke="#2A2218" stroke-width="4">
    <path d="M72 130h176a30 30 0 0 1 30 30v192a30 30 0 0 1-30 30H72a30 30 0 0 1-30-30V160a30 30 0 0 1 30-30Z" fill="url(#cellBottom)" />
    <path d="M72 130h176a30 30 0 0 1 30 30v82H42v-82a30 30 0 0 1 30-30Z" fill="url(#cellTop)" />
    <path d="M266 130h176a30 30 0 0 1 30 30v192a30 30 0 0 1-30 30H266a30 30 0 0 1-30-30V160a30 30 0 0 1 30-30Z" fill="url(#cellBottom)" />
    <path d="M266 130h176a30 30 0 0 1 30 30v82H236v-82a30 30 0 0 1 30-30Z" fill="url(#cellTop)" />
  </g>
  <rect x="54" y="239" width="212" height="7" rx="3.5" fill="#070504" />
  <rect x="248" y="239" width="212" height="7" rx="3.5" fill="#070504" />
  <text
    x="160"
    y="305"
    text-anchor="middle"
    font-family="Helvetica, Arial, sans-serif"
    font-size="212"
    font-weight="700"
    fill="#F2F2F2"
  >
    G
  </text>
  <text
    x="354"
    y="305"
    text-anchor="middle"
    font-family="Helvetica, Arial, sans-serif"
    font-size="212"
    font-weight="700"
    fill="#F2F2F2"
  >
    O
  </text>
</svg>
